<svg width="81" height="30" viewBox="0 0 81 30" fill="none" xmlns="http://www.w3.org/2000/svg">
<g clip-path="url(#clip0_314_1543)">
<path d="M43.5569 7.55768C44.6223 7.55768 45.5744 7.75668 46.4176 8.15469C47.2609 8.5527 47.9772 9.09092 48.562 9.76482C49.1469 10.4387 49.5957 11.2302 49.9085 12.1348C50.2213 13.0394 50.3755 13.9937 50.3755 15.0023C50.3755 16.0109 50.2213 16.9878 49.9085 17.8878C49.5957 18.7924 49.1469 19.5794 48.562 20.2578C47.9772 20.9362 47.2609 21.4699 46.4176 21.8589C45.5744 22.2479 44.6178 22.4469 43.5569 22.4469C42.4961 22.4469 41.5395 22.2524 40.6962 21.8589C39.853 21.4654 39.1367 20.9317 38.5518 20.2578C37.967 19.5794 37.5182 18.7924 37.2054 17.8878C36.8925 16.9878 36.7384 16.0244 36.7384 15.0023C36.7384 13.9801 36.8925 13.0394 37.2054 12.1348C37.5182 11.2302 37.967 10.4433 38.5518 9.76482C39.1367 9.0864 39.853 8.5527 40.6962 8.15469C41.5395 7.75668 42.4961 7.55768 43.5569 7.55768ZM43.5569 9.58843C42.7998 9.58843 42.1425 9.74221 41.5939 10.0452C41.0408 10.3483 40.592 10.7598 40.2474 11.2709C39.9029 11.782 39.6444 12.3609 39.4812 13.0122C39.3135 13.6635 39.2319 14.3238 39.2319 15.0023C39.2319 15.6807 39.3135 16.341 39.4812 16.9923C39.649 17.6436 39.9029 18.2225 40.2474 18.7336C40.592 19.2447 41.0408 19.6518 41.5939 19.9593C42.147 20.2623 42.7998 20.4161 43.5569 20.4161C44.3141 20.4161 44.9714 20.2623 45.52 19.9593C46.0686 19.6563 46.5219 19.2447 46.8665 18.7336C47.211 18.2225 47.4694 17.6436 47.6327 16.9923C47.8004 16.341 47.882 15.6807 47.882 15.0023C47.882 14.3238 47.8004 13.6635 47.6327 13.0122C47.4649 12.3609 47.211 11.782 46.8665 11.2709C46.5219 10.7598 46.0731 10.3528 45.52 10.0452C44.9669 9.73769 44.3141 9.58843 43.5569 9.58843Z" fill="white"/>
<path d="M52.6151 7.89691H56.1241L60.0548 19.0231H60.0956L63.9265 7.89691H67.3992V22.1077H65.0236V11.1443H64.9828L61.034 22.1077H58.9803L55.0315 11.1443H54.9907V22.1077H52.6151V7.89691Z" fill="white"/>
<path d="M69.9697 7.89692H80.8005V9.78746L72.504 19.9548H81V22.1032H69.3305V20.0724L77.627 10.0407H69.9652V7.8924L69.9697 7.89692Z" fill="white"/>
<path d="M2.77457 12.9172C3.78556 6.98327 8.90854 2.673 14.9473 2.673C20.9861 2.673 26.109 6.97874 27.12 12.9172L27.1835 13.2926H29.8946L29.8175 12.7725C28.734 5.49073 22.3416 0 14.9473 0C7.55299 0 1.1606 5.49073 0.0770713 12.777L0 13.2972H2.7111L2.77457 12.9218V12.9172Z" fill="url(#paint0_linear_314_1543)"/>
<path d="M27.0702 17.3813C25.9368 23.1434 20.841 27.3225 14.9519 27.3225C9.06271 27.3225 3.9624 23.1434 2.83353 17.3813L2.761 17.015H0.0408325L0.131505 17.5441C1.36918 24.7626 7.59835 30 14.9473 30C22.2963 30 28.5255 24.7626 29.7631 17.5441L29.8538 17.015H27.1382L27.0657 17.3813H27.0702Z" fill="url(#paint1_linear_314_1543)"/>
<path fill-rule="evenodd" clip-rule="evenodd" d="M9.28478 20.7101C9.84188 21.2614 10.58 21.5689 11.368 21.5694C11.3672 21.5694 11.3665 21.5694 11.3657 21.5694H11.3702C11.3695 21.5694 11.3687 21.5694 11.368 21.5694C12.156 21.5689 12.8941 21.2659 13.4512 20.7101L14.945 19.2198L16.4388 20.7101C17.0146 21.2845 17.7717 21.5695 18.5243 21.5695V21.574C19.2814 21.574 20.034 21.2891 20.6097 20.7147L24.2457 17.0873C25.3927 15.9431 25.3927 14.0751 24.2457 12.9308L20.6097 9.299C19.4627 8.15473 17.5904 8.15473 16.4434 9.299L14.9463 10.7906L13.4512 9.29898C12.3042 8.15018 10.4318 8.15018 9.28478 9.29898L5.64883 12.9263C4.50182 14.0706 4.50182 15.9385 5.64883 17.0828L9.28478 20.7101ZM13.3518 12.3794L11.8599 10.891C11.7329 10.7644 11.5606 10.692 11.3793 10.692H11.3702C11.1889 10.692 11.0166 10.7644 10.8897 10.891L7.25372 14.5183C6.99077 14.7807 6.99077 15.2149 7.25372 15.4772L10.8942 19.1045C11.1526 19.3623 11.5969 19.3623 11.8553 19.1045L13.3433 17.6219L12.8029 17.0828C11.6559 15.9385 11.6559 14.0706 12.8029 12.9263L13.3518 12.3794ZM14.9514 16.0196L14.4078 15.4772C14.1448 15.2149 14.1448 14.7807 14.4078 14.5184L14.9518 13.9756L15.4958 14.5183C15.7588 14.7807 15.7588 15.2149 15.4958 15.4772L14.9514 16.0196ZM16.5521 17.6165L17.0871 17.0828C18.2341 15.9385 18.2341 14.0706 17.0871 12.9263L16.5454 12.3858L18.0437 10.891C18.1752 10.7599 18.352 10.692 18.5243 10.692C18.6966 10.692 18.8734 10.7599 19.0048 10.891L22.6408 14.5184C22.9037 14.7807 22.9037 15.2149 22.6408 15.4772L19.0048 19.1045C18.7419 19.3668 18.3067 19.3668 18.0437 19.1045L16.5521 17.6165Z" fill="url(#paint2_linear_314_1543)"/>
</g>
<defs>
<linearGradient id="paint0_linear_314_1543" x1="10.5" y1="-7.30134e-08" x2="18.6265" y2="14.8104" gradientUnits="userSpaceOnUse">
<stop offset="0.22" stop-color="#D736FF"/>
<stop offset="1" stop-color="#49A8FF"/>
</linearGradient>
<linearGradient id="paint1_linear_314_1543" x1="10.5122" y1="17.015" x2="18.3576" y2="31.6169" gradientUnits="userSpaceOnUse">
<stop offset="0.22" stop-color="#D736FF"/>
<stop offset="1" stop-color="#49A8FF"/>
</linearGradient>
<linearGradient id="paint2_linear_314_1543" x1="16.566" y1="8.4408" x2="25.8804" y2="16.0088" gradientUnits="userSpaceOnUse">
<stop offset="0.22" stop-color="#D736FF"/>
<stop offset="1" stop-color="#49A8FF"/>
</linearGradient>
<clipPath id="clip0_314_1543">
<rect width="81" height="30" fill="white"/>
</clipPath>
</defs>
</svg>
