<svg width="12" height="12" viewBox="0 0 12 12" fill="none" xmlns="http://www.w3.org/2000/svg">
<path d="M6 7C6.55228 7 7 6.55228 7 6C7 5.44772 6.55228 5 6 5C5.44772 5 5 5.44772 5 6C5 6.55228 5.44772 7 6 7Z" fill="#52E77C"/>
<path d="M9.5 7C10.0523 7 10.5 6.55228 10.5 6C10.5 5.44772 10.0523 5 9.5 5C8.94772 5 8.5 5.44772 8.5 6C8.5 6.55228 8.94772 7 9.5 7Z" fill="#52E77C"/>
<path d="M2.5 7C3.05228 7 3.5 6.55228 3.5 6C3.5 5.44772 3.05228 5 2.5 5C1.94772 5 1.5 5.44772 1.5 6C1.5 6.55228 1.94772 7 2.5 7Z" fill="#52E77C"/>
</svg>
